<svg height="512pt" viewBox="-30 0 512 512" width="512pt" xmlns="http://www.w3.org/2000/svg"><path d="m144.601562 411.601562c0 38.546876-31.253906 69.796876-69.800781 69.796876-38.550781 0-69.800781-31.25-69.800781-69.796876 0-38.550781 31.25-69.800781 69.800781-69.800781 38.546875 0 69.800781 31.25 69.800781 69.800781zm0 0" fill="#6dcc6d"/><path d="m74.800781 481.199219c18.398438 0 36-7.199219 49-20.199219-1.402343-1.601562-3.199219-2.800781-5.199219-3.199219l-20-5-12-6-4 11.597657c-.203124.601562-.800781 1.203124-1.601562 1.203124h-12.398438c-.800781 0-1.402343-.402343-1.601562-1.203124l-4-11.597657-12 6-20 5c-2 .597657-3.800781 1.597657-5.199219 3.199219 13 13 30.800781 20.398438 49 20.199219zm0 0" fill="#e9e9ea"/><path d="m101.800781 394.800781c-.601562 0-1.199219 0-1.800781.199219v1.800781 17.800781 1.796876c5.800781 1 11.398438-3 12.398438-8.796876 1-5.800781-3-11.402343-8.796876-12.402343-.601562-.398438-1.203124-.398438-1.800781-.398438zm0 0" fill="#f9d0b4"/><path d="m48.800781 414.398438v-17.796876c0-.601562 0-1.203124 0-1.800781-5.800781-1-11.402343 3-12.402343 8.800781-1 5.796876 3 11.398438 8.800781 12.398438 1.199219.199219 2.402343.199219 3.601562 0 0-.398438 0-1 0-1.601562zm0 0" fill="#f9d0b4"/><path d="m78.398438 383.199219c-9.398438 11.800781-23.199219 10.199219-28 9.199219-.796876-.199219-1.398438.402343-1.597657 1v.203124 20.796876c0 14.203124 11.597657 25.601562 25.800781 25.800781 14.199219 0 25.597657-11.597657 25.796876-25.800781v-23c0-.199219 0-.199219 0-.398438 0-.800781-.597657-1.398438-1.398438-1.398438-10.601562-.402343-16.398438-4.601562-18.398438-6.601562-.800781-.398438-1.601562-.398438-2.203124.199219zm0 0" fill="#f9d0b4"/><path d="m74.601562 440.199219c-4 0-8-1-11.402343-2.800781v9.601562l4 11.601562c.199219.597657.800781 1.199219 1.601562 1.199219h12.398438c.800781 0 1.402343-.402343 1.601562-1.199219l4-11.601562v-10c-3.800781 2-8 3.199219-12.199219 3.199219zm0 0" fill="#f9d0b4"/><path d="m144.601562 256c0 38.550781-31.253906 69.800781-69.800781 69.800781-38.550781 0-69.800781-31.25-69.800781-69.800781s31.25-69.800781 69.800781-69.800781c38.546875 0 69.800781 31.25 69.800781 69.800781zm0 0" fill="#ffcd29"/><path d="m74.800781 325.800781c18.398438 0 36-7.199219 49-20.199219-1.402343-1.601562-3.199219-2.800781-5.199219-3.203124l-20-5-12-6-4 11.601562c-.203124.601562-.800781 1.199219-1.601562 1.199219h-12.398438c-.800781 0-1.402343-.398438-1.601562-1.199219l-4-11.601562-12 6-20 5c-2 .601562-3.800781 1.601562-5.199219 3.203124 13 13 30.800781 20.199219 49 20.199219zm0 0" fill="#e9e9ea"/><path d="m101.800781 239.398438c-.601562 0-1.199219 0-1.800781.203124v1.796876 17.800781 1.800781c5.800781 1 11.398438-3 12.398438-8.800781s-3-11.398438-8.796876-12.398438c-.601562-.402343-1.203124-.402343-1.800781-.402343zm0 0" fill="#f9d0b4"/><path d="m48.800781 259v-17.800781c0-.597657 0-1.199219 0-1.800781-5.800781-1-11.402343 3-12.402343 8.800781s3 11.402343 8.800781 12.402343c1.199219.199219 2.402343.199219 3.601562 0 0-.601562 0-1.203124 0-1.601562zm0 0" fill="#f9d0b4"/><path d="m78.398438 227.601562c-9.398438 11.796876-23.199219 10.199219-28 9.199219-.796876-.199219-1.398438.398438-1.597657 1v.199219 20.800781c0 14.199219 11.597657 25.597657 25.800781 25.800781 14.199219 0 25.597657-11.601562 25.796876-25.800781v-22.800781c0-.199219 0-.199219 0-.398438 0-.800781-.597657-1.402343-1.398438-1.402343-10.601562-.398438-16.398438-4.597657-18.398438-6.597657-.800781-.601562-1.601562-.601562-2.203124 0zm0 0" fill="#f9d0b4"/><path d="m74.601562 284.601562c-4 0-8-1-11.402343-2.800781v9.597657l4 11.601562c.199219.601562.800781 1.199219 1.601562 1.199219h12.398438c.800781 0 1.402343-.398438 1.601562-1.199219l4-11.601562v-10c-3.800781 2.203124-8 3.203124-12.199219 3.203124zm0 0" fill="#f9d0b4"/><path d="m144.601562 100.398438c0 38.550781-31.253906 69.800781-69.800781 69.800781-38.550781 0-69.800781-31.25-69.800781-69.800781 0-38.546876 31.25-69.796876 69.800781-69.796876 38.546875 0 69.800781 31.25 69.800781 69.796876zm0 0" fill="#ea4647"/><path d="m74.800781 170.199219c18.398438 0 36-7.199219 49-20.199219-1.402343-1.601562-3.199219-2.800781-5.199219-3.199219l-20-5-12-6-4 11.597657c-.203124.601562-.800781 1.203124-1.601562 1.203124h-12.398438c-.800781 0-1.402343-.402343-1.601562-1.203124l-4-11.597657-12 6-20 5c-2 .597657-3.800781 1.597657-5.199219 3.199219 13 13 30.800781 20.199219 49 20.199219zm0 0" fill="#e9e9ea"/><path d="m101.800781 83.800781c-.601562 0-1.199219 0-1.800781.199219v1.800781 17.800781 1.796876c5.800781 1 11.398438-3 12.398438-8.796876 1-5.800781-3-11.402343-8.796876-12.402343-.601562-.398438-1.203124-.398438-1.800781-.398438zm0 0" fill="#f9d0b4"/><path d="m48.800781 103.398438v-17.796876c0-.601562 0-1.203124 0-1.800781-5.800781-1-11.402343 3-12.402343 8.800781-1 5.796876 3 11.398438 8.800781 12.398438 1.199219.199219 2.402343.199219 3.601562 0 0-.398438 0-1 0-1.601562zm0 0" fill="#f9d0b4"/><path d="m78.398438 72.199219c-9.398438 11.800781-23.199219 10.199219-28 9.199219-.796876-.199219-1.398438.402343-1.597657 1v.203124 20.796876c0 14.203124 11.597657 25.601562 25.800781 25.800781 14.199219 0 25.597657-11.597657 25.796876-25.800781v-23c0-.199219 0-.199219 0-.398438 0-.800781-.597657-1.398438-1.398438-1.398438-10.601562-.402343-16.398438-4.601562-18.398438-6.601562-.800781-.398438-1.601562-.398438-2.203124.199219 0-.199219 0 0 0 0zm0 0" fill="#f9d0b4"/><path d="m74.601562 129.199219c-4 0-8-1-11.402343-2.800781v9.601562l4 11.601562c.199219.597657.800781 1.199219 1.601562 1.199219h12.398438c.800781 0 1.402343-.402343 1.601562-1.199219l4-11.601562v-10c-3.800781 2-8 3.199219-12.199219 3.199219zm0 0" fill="#f9d0b4"/><path d="m47.199219 83.800781c.601562 0 1.199219 0 1.601562.199219v-1.199219c0-.800781.597657-1.402343 1.398438-1.402343h.199219c4.601562 1 18.601562 2.601562 28-9.199219.402343-.597657 1.402343-.800781 2-.199219 0 0 0 0 .203124.199219 2.199219 2.199219 7.796876 6.402343 18.398438 6.601562.800781 0 1.398438.597657 1.398438 1.398438v.402343 3.398438c3.402343-.601562 6.601562.601562 9.203124 2.800781v-19.402343c0-8.199219-6.601562-14.597657-14.601562-14.597657-2.601562 0-5.199219.800781-7.601562 2-2.597657-4.402343-7.398438-7.199219-12.597657-7.199219h-7.601562c-14.597657 0-26.597657 12-26.597657 26.597657v11.800781c1.796876-1.398438 4-2.199219 6.597657-2.199219zm0 0" fill="#6d6c6b"/><path d="m47.199219 239.398438c.601562 0 1.199219 0 1.601562.203124v-1.203124c0-.796876.597657-1.398438 1.398438-1.398438h.199219c4.601562 1 18.601562 2.601562 28-9.199219.402343-.601562 1.402343-.800781 2-.199219 0 0 0 0 .203124.199219 2.199219 2.199219 7.796876 6.398438 18.398438 6.597657.800781 0 1.398438.601562 1.398438 1.402343v.398438 3.402343c3.402343-.601562 6.601562.597657 9.203124 2.796876v-19.398438c0-8.199219-6.601562-14.601562-14.601562-14.601562-2.601562 0-5.199219.800781-7.601562 2-2.597657-4.398438-7.398438-7.199219-12.597657-7.199219h-7.601562c-14.597657 0-26.597657 12-26.597657 26.601562v11.800781c1.796876-1.402343 4-2.203124 6.597657-2.203124zm0 0" fill="#6d6c6b"/><path d="m47.199219 394.800781c.601562 0 1.199219 0 1.601562.199219v-1.199219c0-.800781.597657-1.402343 1.398438-1.402343h.199219c4.601562 1 18.601562 2.601562 28-9.199219.402343-.597657 1.402343-.800781 2-.199219 0 0 0 0 .203124.199219 2.199219 2.199219 7.796876 6.402343 18.398438 6.601562.800781 0 1.398438.597657 1.398438 1.398438v.402343 3.398438c3.402343-.601562 6.601562.601562 9.203124 2.800781v-19.402343c0-8.199219-6.601562-14.597657-14.601562-14.597657-2.601562 0-5.199219.800781-7.601562 2-2.597657-4.402343-7.398438-7.199219-12.597657-7.199219h-7.601562c-14.597657 0-26.597657 12-26.597657 26.597657v11.800781c1.796876-1.398438 4-2.199219 6.597657-2.199219zm0 0" fill="#6d6c6b"/><path d="m426.398438 395.800781h-283.597657c3.199219 13.597657 2.199219 28-3 41h286.398438c11.402343 0 20.601562-9.199219 20.601562-20.402343 0-11.199219-9-20.597657-20.402343-20.597657zm0 0" fill="#e9e9ea"/><path d="m318.199219 416.398438c0-11.398438-9.199219-20.597657-20.597657-20.597657h-154.800781c3.199219 13.597657 2.199219 28-3 41h157.800781c11.398438 0 20.597657-9.199219 20.597657-20.402343zm0 0" fill="#6dcc6d"/><path d="m426.398438 235.601562h-284.796876c4 13.398438 4 27.597657 0 41h284.796876c11.402343 0 20.601562-9.203124 20.601562-20.601562-.199219-11.398438-9.398438-20.601562-20.601562-20.398438zm0 0" fill="#e9e9ea"/><path d="m365.601562 256c0-11.398438-9.203124-20.601562-20.601562-20.601562h-203.398438c4 13.402343 4 27.601562 0 41h203.597657c11.199219.203124 20.402343-9 20.402343-20.398438zm0 0" fill="#ffcd29"/><path d="m426.398438 80h-284.796876c4 13.398438 4 27.601562 0 41h284.796876c11.402343 0 20.601562-9.199219 20.601562-20.601562 0-11.398438-9.398438-20.398438-20.601562-20.398438zm0 0" fill="#e9e9ea"/><path d="m252.800781 100.398438c0-11.398438-9.199219-20.597657-20.601562-20.597657h-90.597657c4 13.398438 4 27.597657 0 41h90.796876c11.203124.199219 20.402343-9 20.402343-20.402343zm0 0" fill="#ea4647"/><path d="m315 33.398438h-17.398438c-2.800781 0-5-2.199219-5-5 0-2.796876 2.199219-5 5-5h17.398438c2.800781 0 5 2.203124 5 5 0 2.800781-2.199219 5-5 5zm0 0" fill="#ffcd29"/><path d="m306.398438 42c-2.796876 0-5-2.199219-5-5v-17.398438c0-2.800781 2.203124-5 5-5 2.800781 0 5 2.199219 5 5v17.398438c0 2.800781-2.398438 5-5 5zm0 0" fill="#ffcd29"/><path d="m207.601562 342.800781h-17.402343c-2.800781 0-5-2.199219-5-5s2.199219-5 5-5h17.402343c2.796876 0 5 2.199219 5 5s-2.203124 5-5 5zm0 0" fill="#ffcd29"/><path d="m198.800781 351.398438c-2.800781 0-5-2.199219-5-5v-17.398438c0-2.800781 2.199219-5 5-5s5 2.199219 5 5v17.398438c0 2.800781-2.199219 5-5 5zm0 0" fill="#ffcd29"/><path d="m186.800781 52.601562c-1.402343 0-2.601562-.601562-3.601562-1.402343-.199219-.199219-.398438-.398438-.597657-.800781-.203124-.199219-.402343-.597657-.402343-.796876-.199219-.203124-.199219-.601562-.199219-1-.199219-.601562-.199219-1.402343 0-2 .199219-.601562.398438-1.203124.800781-1.800781.199219-.199219.398438-.601562.597657-.800781 2-1.800781 5-1.800781 7 0 .203124.199219.402343.398438.601562.800781.199219.199219.398438.597657.398438.800781.203124.398438.203124.597657.203124 1 .199219.597657.199219 1.398438 0 2 0 .398438-.203124.597657-.203124 1-.199219.199219-.199219.597657-.398438.796876-.199219.203124-.398438.601562-.601562.800781-1 1-2.398438 1.402343-3.597657 1.402343zm0 0" fill="#f75c64"/><path d="m390.199219 486.199219h-17.398438c-2.800781 0-5-2.199219-5-5s2.199219-5 5-5h17.398438c2.800781 0 5 2.199219 5 5s-2.199219 5-5 5zm0 0" fill="#6dcc6d"/><path d="m381.601562 495c-2.800781 0-5-2.199219-5-5v-17.398438c0-2.800781 2.199219-5 5-5 2.796876 0 5 2.199219 5 5v17.398438c0 2.800781-2.402343 5-5 5zm0 0" fill="#6dcc6d"/><path d="m331.800781 512c-.402343 0-.601562 0-1-.199219-.402343 0-.601562-.199219-1-.199219-.402343-.203124-.601562-.203124-.800781-.402343s-.601562-.398438-.800781-.597657c-.199219-.203124-.398438-.402343-.597657-.800781-.203124-.199219-.402343-.601562-.402343-.800781-.398438-1.199219-.398438-2.601562 0-3.800781.199219-.199219.199219-.597657.402343-.800781.199219-.199219.398438-.597657.597657-.796876 1.199219-1.203124 2.800781-1.601562 4.601562-1.402343.597657.199219 1.199219.402343 1.800781.800781.199219.199219.597657.398438.796876.601562.203124.199219.402343.398438.601562.796876.199219.203124.398438.601562.398438.800781.203124.402343.203124.601562.203124 1 .199219.601562.199219 1.402343 0 2 0 .402343-.203124.601562-.203124 1-.199219.402343-.199219.601562-.398438.800781s-.398438.601562-.601562.800781c-.199219.199219-.398438.398438-.796876.597657-.203124.203124-.601562.402343-.800781.402343-.402343.199219-.601562.199219-1 .199219-.402343 0-.800781 0-1 0zm0 0" fill="#f75c64"/><g fill="#231f20"><path d="m74.800781 175.199219c-41.199219 0-74.800781-33.398438-74.800781-74.800781 0-41.199219 33.398438-74.796876 74.800781-74.796876 41.199219 0 74.800781 33.398438 74.800781 74.796876 0 41.402343-33.402343 74.800781-74.800781 74.800781zm0-139.398438c-35.800781 0-64.800781 29-64.800781 64.800781 0 35.796876 29 64.796876 64.800781 64.796876s64.800781-29 64.800781-64.796876c0-35.800781-29-64.800781-64.800781-64.800781zm0 0"/><path d="m101.800781 110.199219c-.800781 0-1.601562 0-2.601562-.199219-2.597657-.398438-4.398438-2.601562-4.199219-5.199219 0-.402343 0-1 0-1.402343v-17.796876c0-.402343 0-1 0-1.402343-.199219-2.597657 1.601562-4.800781 4.199219-5.199219 8.601562-1.398438 16.601562 4.398438 18 13 1.402343 8.601562-4.398438 16.601562-13 18-.597657.199219-1.398438.199219-2.398438.199219zm3.398438-20.398438v9.398438c2.601562-1.800781 3.199219-5.398438 1.402343-8-.402343-.597657-.800781-1-1.402343-1.398438zm0 0"/><path d="m47.199219 110.199219c-8.597657 0-15.800781-7-15.800781-15.800781 0-8.796876 7-15.796876 15.800781-15.796876.800781 0 1.601562 0 2.601562.199219 2.597657.398438 4.398438 2.597657 4.199219 5.199219v1.398438 17.800781 1.402343c.199219 2.597657-1.601562 4.796876-4.199219 5.199219-1 .398438-1.800781.398438-2.601562.398438zm-3.398438-20.398438c-2.601562 1.800781-3.199219 5.398438-1.402343 8 .402343.597657.800781 1 1.402343 1.398438zm0 0"/><path d="m74.601562 134.199219c-17 0-30.800781-13.800781-30.800781-30.800781v-20.796876c0-3.601562 2.800781-6.402343 6.398438-6.402343.402343 0 .800781 0 1.402343.199219 4.398438 1 15.398438 2 23-7.398438 2.199219-2.800781 6.199219-3.199219 9-1 .199219.199219.398438.199219.398438.398438 1.601562 1.402343 6 5 15.199219 5.203124 3.402343.199219 6.199219 2.796876 6.199219 6.199219v23.597657c-.199219 17-14 30.601562-30.796876 30.800781zm-20.800781-47.398438v16.597657c0 11.402343 9.199219 20.800781 20.800781 20.800781 11.597657 0 20.796876-9.199219 20.796876-20.800781v-20c-5.597657-.398438-10.796876-2.398438-15.398438-5.398438-7.199219 6.800781-16.601562 10-26.199219 8.800781zm0 0"/><path d="m109.398438 91.800781c-1.199219 0-2.597657-.601562-3.398438-1.402343-1.199219-1.199219-3-1.796876-4.800781-1.597657-2.800781.398438-5.199219-1.402343-5.800781-4.199219 0-.203124 0-.601562 0-.800781v-.402343c-5.597657-.398438-10.796876-2.398438-15.398438-5.398438-9 9-20.601562 9.398438-27 8.800781-1 1.597657-3 2.398438-4.800781 2-.199219 0-.597657 0-.800781 0-1.398438 0-2.597657.398438-3.597657 1.199219-2.199219 1.800781-5.402343 1.398438-7-.800781-.800781-.800781-1-2-1-3.199219v-12c0-17.398438 14.199219-31.601562 31.597657-31.601562h7.601562c5.398438 0 10.398438 2.203124 14.199219 6 2-.597657 4-1 6-1 10.800781 0 19.601562 8.800781 19.601562 19.601562v19.398438c-.402343 3.203124-2.800781 5.402343-5.402343 5.402343zm-42.398438-39.199219c-11.800781 0-21.601562 9.597657-21.601562 21.597657v4.199219c1.601562-1.597657 3.800781-2.398438 6-2 4.402343 1 15.402343 2 23-7.398438 2.203124-2.800781 6.203124-3.199219 9-1 .203124.199219.402343.199219.601562.398438 1.601562 1.402343 6 5 15.199219 5.203124 2.199219 0 4.199219 1.199219 5.199219 3.199219v-9.402343c0-5.398438-4.199219-9.597657-9.597657-9.597657-1.800781 0-3.601562.398438-5 1.398438-2.402343 1.402343-5.402343.601562-6.800781-1.800781-1.800781-3-4.800781-4.796876-8.398438-4.796876zm0 0"/><path d="m81 153.601562h-12.398438c-2.800781 0-5.402343-1.800781-6.402343-4.402343l-4-11.597657c0-.601562-.199219-1.203124-.199219-1.601562v-9.601562c0-2.796876 2.199219-5 5-5 .800781 0 1.601562.203124 2.199219.601562 6 3 13.199219 2.800781 19-.398438 2.402343-1.402343 5.402343-.402343 6.800781 2 .398438.796876.601562 1.597657.601562 2.398438v10c0 .601562 0 1.199219-.203124 1.601562l-4 11.597657c-1 2.601562-3.398438 4.402343-6.398438 4.402343zm-10-10h7.800781l3-8.601562v-1.800781c-4.402343 1-9.199219 1.199219-13.800781.199219v1.601562zm0 0"/><path d="m74.800781 175.199219c-19.601562 0-38.601562-7.800781-52.601562-21.597657-1.800781-1.800781-2-4.800781-.199219-6.800781 2-2.402343 4.800781-4 7.800781-4.800781l19.398438-4.800781 11.601562-5.597657c2.398438-1.203124 5.398438-.203124 6.597657 2.199219 0 .199219.203124.398438.203124.597657l3.199219 9.402343h7.800781l3.199219-9.402343c1-2.597657 3.800781-4 6.398438-3 .199219 0 .402343.203124.601562.203124l11.597657 5.597657 19.601562 4.800781c3 .800781 5.800781 2.398438 7.800781 4.800781 1.800781 2 1.597657 5-.199219 6.800781-14.203124 14-33 21.597657-52.800781 21.597657zm-40.199219-24c23.597657 18.800781 57 18.800781 80.796876 0l-17.796876-4.398438c-.402343 0-.601562-.199219-1-.402343l-7-3.398438-2.203124 6.199219c-1 2.601562-3.398438 4.402343-6.398438 4.402343h-12.398438c-2.800781 0-5.402343-1.800781-6.402343-4.402343l-2.199219-6.199219-7 3.398438c-.398438.203124-.601562.203124-1 .402343zm0 0"/><path d="m74.800781 330.800781c-41.199219 0-74.800781-33.402343-74.800781-74.800781 0-41.199219 33.398438-74.800781 74.800781-74.800781 41.199219 0 74.800781 33.402343 74.800781 74.800781 0 41.199219-33.402343 74.800781-74.800781 74.800781zm0-139.601562c-35.800781 0-64.800781 29-64.800781 64.800781s29 64.800781 64.800781 64.800781 64.800781-29 64.800781-64.800781-29-64.800781-64.800781-64.800781zm0 0"/><path d="m101.800781 265.800781c-.800781 0-1.601562 0-2.601562-.199219-2.597657-.402343-4.398438-2.601562-4.199219-5.203124 0-.398438 0-1 0-1.398438v-17.800781c0-.398438 0-1 0-1.398438-.199219-2.601562 1.601562-4.800781 4.199219-5.199219 8.601562-1.402343 16.601562 4.398438 18 13 1.402343 8.597657-4.398438 16.597657-13 18-.597657.199219-1.398438.199219-2.398438.199219zm3.398438-20.402343v9.402343c2.601562-1.800781 3.199219-5.402343 1.402343-8-.402343-.601562-.800781-1-1.402343-1.402343zm0 0"/><path d="m47.199219 265.800781c-8.597657 0-15.800781-7-15.800781-15.800781s7-15.800781 15.800781-15.800781c.800781 0 1.601562 0 2.601562.199219 2.597657.402343 4.398438 2.601562 4.199219 5.203124v1.398438 17.800781 1.398438c.199219 2.601562-1.601562 4.800781-4.199219 5.199219-1 .402343-1.800781.402343-2.601562.402343zm-3.398438-20.402343c-2.601562 1.800781-3.199219 5.402343-1.402343 8 .402343.601562.800781 1 1.402343 1.402343zm0 0"/><path d="m74.601562 289.601562c-17 0-30.800781-13.800781-30.800781-30.800781v-20.601562c0-3.597657 2.800781-6.398438 6.398438-6.398438.402343 0 .800781 0 1.402343.199219 4.398438 1 15.398438 2 23-7.398438 2.199219-2.800781 6.199219-3.203124 9-1 .199219.199219.398438.199219.597657.398438 1.601562 1.398438 6 5 15.199219 5.199219 3.402343.199219 6.203124 2.800781 6.203124 6.199219v23.601562c-.402343 16.800781-14.203124 30.601562-31 30.601562zm-20.800781-47.203124v16.601562c0 11.398438 9.199219 20.800781 20.800781 20.800781 11.597657 0 20.796876-9.199219 20.796876-20.800781v-20c-5.597657-.398438-10.796876-2.398438-15.398438-5.398438-7.199219 6.597657-16.601562 9.796876-26.199219 8.796876zm23.199219-11.199219"/><path d="m109.398438 247.398438c-1.199219 0-2.597657-.597657-3.398438-1.398438-1.199219-1.199219-3-1.800781-4.800781-1.601562-2.800781.402343-5.199219-1.398438-5.800781-4.199219 0-.199219 0-.597657 0-.800781v-.398438c-5.597657-.398438-10.796876-2.398438-15.398438-5.398438-9 9-20.601562 9.398438-27 8.796876-1 1.601562-3 2.402343-4.800781 2-.199219 0-.597657 0-.800781 0-1.398438 0-2.597657.402343-3.597657 1.203124-2.199219 1.796876-5.402343 1.398438-7-.800781-.800781-.800781-1-2-1-3.199219v-11.800781c0-17.402343 14.199219-31.601562 31.597657-31.601562h7.601562c5.398438 0 10.398438 2.199219 14.199219 6 2-.597657 4-1 6-1 10.800781 0 19.601562 8.800781 19.601562 19.601562v19.398438c-.402343 2.800781-2.800781 5.199219-5.402343 5.199219zm-42.398438-39.199219c-12 0-21.601562 9.601562-21.601562 21.601562v4.199219c.203124-.199219.402343-.398438.800781-.601562 1.402343-1.199219 3.402343-1.597657 5.402343-1.199219 4.398438 1 15.398438 2 23-7.398438 2.199219-2.800781 6.199219-3.199219 9-1 .199219.199219.398438.199219.597657.398438 1.601562 1.402343 6 5 15.199219 5.199219 2.203124 0 4.203124 1.203124 5.203124 3.203124v-9.402343c0-5.398438-4.203124-9.597657-9.601562-9.597657-1.800781 0-3.601562.398438-5 1.398438-2.398438 1.398438-5.398438.601562-6.800781-1.800781-1.800781-3-4.800781-4.800781-8.398438-4.800781zm10 23"/><path d="m81 309.199219h-12.398438c-2.800781 0-5.402343-1.800781-6.402343-4.398438l-4-11.601562c-.199219-.597657-.199219-1-.199219-1.597657v-9.601562c0-2.800781 2.199219-5 5-5 .800781 0 1.601562.199219 2.199219.601562 6 3 13.199219 2.796876 19-.402343 2.402343-1.398438 5.402343-.398438 6.800781 2 .398438.800781.601562 1.601562.601562 2.402343v10c0 .597657 0 1.199219-.203124 1.597657l-4 11.601562c-1 2.597657-3.398438 4.398438-6.398438 4.398438zm-10-10h7.800781l3-8.597657v-1.800781c-4.402343 1-9.199219 1.199219-13.800781.199219v1.601562zm0 0"/><path d="m74.800781 330.800781c-19.601562 0-38.601562-7.800781-52.601562-21.601562-1.800781-1.800781-2-4.800781-.199219-6.800781 2-2.398438 4.800781-4 7.800781-4.796876l19.398438-4.800781 11.601562-5.601562c2.398438-1.199219 5.398438-.199219 6.597657 2.199219 0 .203124.203124.402343.203124.601562l3.199219 9.398438h7.800781l3.199219-9.398438c1-2.601562 3.800781-4 6.398438-3 .199219 0 .402343.199219.601562.199219l11.597657 5.601562 19.402343 4.800781c3 .796876 5.800781 2.398438 7.800781 4.796876 1.796876 2 1.597657 5-.203124 6.800781-14 13.800781-32.796876 21.601562-52.597657 21.601562zm-40.199219-24.199219c23.597657 18.796876 57 18.796876 80.796876 0l-17.796876-4.402343c-.402343 0-.601562-.199219-1-.398438l-7-3.402343-2.203124 6.203124c-1 2.597657-3.398438 4.398438-6.398438 4.398438h-12.398438c-2.800781 0-5.402343-1.800781-6.402343-4.398438l-2.199219-6.203124-7 3.402343c-.398438.199219-.601562.199219-1 .398438zm0 0"/><path d="m74.800781 486.199219c-41.199219 0-74.800781-33.398438-74.800781-74.800781 0-41.199219 33.398438-74.796876 74.800781-74.796876 41.199219 0 74.800781 33.398438 74.800781 74.796876 0 41.402343-33.402343 74.800781-74.800781 74.800781zm0-139.398438c-35.800781 0-64.800781 29-64.800781 64.800781 0 35.796876 29 64.796876 64.800781 64.796876s64.800781-29 64.800781-64.796876c0-35.800781-29-64.800781-64.800781-64.800781zm0 0"/><path d="m101.800781 421.398438c-.800781 0-1.601562 0-2.601562-.199219-2.597657-.398438-4.398438-2.597657-4.199219-5.199219 0-.398438 0-1 0-1.398438v-17.800781c0-.402343 0-1 0-1.402343-.199219-2.597657 1.601562-4.796876 4.199219-5.199219 8.601562-1.398438 16.601562 4.402343 18 13 1.402343 8.601562-4.398438 16.601562-13 18-.597657 0-1.398438.199219-2.398438.199219zm3.398438-20.398438v9.398438c2.601562-1.796876 3.199219-5.398438 1.402343-8-.402343-.597657-.800781-1.199219-1.402343-1.398438zm0 0"/><path d="m47.199219 421.398438c-8.597657 0-15.800781-7-15.800781-15.796876 0-8.601562 7-15.800781 15.800781-15.800781.800781 0 1.601562 0 2.601562.199219 2.597657.398438 4.398438 2.601562 4.199219 5.199219v1.402343 17.796876 1.402343c.199219 2.597657-1.601562 4.800781-4.199219 5.199219-1 .199219-1.800781.398438-2.601562.398438zm-3.398438-20.398438c-2.601562 1.800781-3.199219 5.398438-1.402343 8 .402343.601562.800781 1 1.402343 1.398438zm0 0"/><path d="m74.601562 445.199219c-17 0-30.800781-13.800781-30.800781-30.800781v-20.597657c0-3.601562 2.800781-6.402343 6.398438-6.402343.402343 0 .800781 0 1.402343.203124 4.398438 1 15.398438 2 23-7.402343 2.199219-2.800781 6.199219-3.199219 9-1 .199219.199219.398438.199219.597657.402343 1.601562 1.398438 6 5 15.199219 5.199219 3.402343.199219 6.203124 2.800781 6.203124 6.199219v23.601562c-.402343 16.796876-14.203124 30.597657-31 30.597657zm-20.800781-47.199219v16.601562c0 11.398438 9.199219 20.796876 20.800781 20.796876 11.597657 0 20.796876-9.199219 20.796876-20.796876v-20c-5.597657-.402343-10.796876-2.402343-15.398438-5.402343-7.199219 6.601562-16.601562 9.800781-26.199219 8.800781zm23.199219-11.398438"/><path d="m109.398438 402.800781c-1.199219 0-2.597657-.601562-3.398438-1.402343-1.199219-1.199219-3-1.796876-4.800781-1.597657-2.800781.398438-5.199219-1.402343-5.800781-4.199219 0-.203124 0-.601562 0-.800781v-.402343c-5.597657-.398438-10.796876-2.398438-15.398438-5.398438-9 9-20.601562 9.398438-27 8.800781-1 1.597657-3 2.398438-4.800781 2-.199219 0-.597657 0-.800781 0-1.398438 0-2.597657.398438-3.597657 1.199219-2.199219 1.800781-5.402343 1.398438-7-.800781-.800781-.800781-1-2-1-3.199219v-11.800781c0-17.398438 14.199219-31.597657 31.597657-31.597657h7.601562c5.398438 0 10.398438 2.199219 14.199219 6 2-.601562 4-1 6-1 10.800781 0 19.601562 8.796876 19.601562 19.597657v19.402343c-.402343 3-2.800781 5.199219-5.402343 5.199219zm-42.398438-39c-11.800781 0-21.601562 9.597657-21.601562 21.597657v4.203124c.203124-.203124.402343-.402343.800781-.601562 1.402343-1.199219 3.402343-1.601562 5.402343-1.199219 4.398438 1 15.398438 2 23-7.402343 2.199219-2.796876 6.199219-3.199219 9-1 .199219.203124.398438.203124.597657.402343 1.601562 1.398438 6 5 15.199219 5.199219 2.203124 0 4.203124 1.199219 5.203124 3.199219v-9.398438c0-5.402343-4.203124-9.601562-9.601562-9.601562-1.800781 0-3.601562.402343-5 1.402343-2.398438 1.398438-5.398438.597657-6.800781-1.800781-1.800781-3-4.800781-4.800781-8.398438-4.800781zm10 22.800781"/><path d="m81 464.800781h-12.398438c-2.800781 0-5.402343-1.800781-6.402343-4.402343l-4-11.597657c-.199219-.601562-.199219-1-.199219-1.601562v-9.597657c0-2.800781 2.199219-5 5-5 .800781 0 1.601562.199219 2.199219.597657 6 3 13.199219 2.800781 19-.398438 2.402343-1.402343 5.402343-.402343 6.800781 2 .398438.800781.601562 1.597657.601562 2.398438v10c0 .601562 0 1.199219-.203124 1.601562l-4 11.597657c-1 2.601562-3.398438 4.402343-6.398438 4.402343zm-10-10h7.800781l3-8.601562v-1.800781c-4.402343 1-9.199219 1.203124-13.800781.203124v1.597657zm0 0"/><path d="m74.800781 486.199219c-19.601562 0-38.601562-7.800781-52.601562-21.597657-1.800781-1.800781-2-4.800781-.199219-6.800781 2-2.402343 4.800781-4 7.800781-4.800781l19.398438-4.800781 11.601562-5.597657c2.398438-1.203124 5.398438-.203124 6.597657 2.199219 0 .199219.203124.398438.203124.597657l3.199219 9.402343h7.800781l3.199219-9.402343c1-2.597657 3.800781-4 6.398438-3 .199219 0 .402343.203124.601562.203124l11.597657 5.597657 19.402343 4.800781c3 .800781 5.800781 2.398438 7.800781 4.800781 1.796876 2 1.597657 5-.203124 6.800781-14 14-32.796876 21.796876-52.597657 21.597657zm-40.199219-24c23.597657 18.800781 57 18.800781 80.796876 0l-17.796876-4.398438c-.402343 0-.601562-.199219-1-.402343l-7-3.398438-2.203124 6.199219c-1 2.601562-3.398438 4.402343-6.398438 4.402343h-12.398438c-2.800781 0-5.402343-1.800781-6.402343-4.402343l-2.199219-6.199219-7 3.398438c-.398438.203124-.601562.203124-1 .402343zm0 0"/><path d="m426.398438 126h-284.796876c-2.800781 0-5-2.199219-5-5 0-.398438 0-1 .199219-1.398438 3.800781-12.402343 3.800781-25.601562 0-38-.800781-2.800781.597657-5.601562 3.199219-6.402343.398438-.199219 1-.199219 1.398438-.199219h284.800781c14 0 25.601562 11.398438 25.601562 25.601562 0 14.199219-11.402343 25.398438-25.402343 25.398438zm-278.398438-10h278.398438c8.601562 0 15.601562-7 15.601562-15.601562 0-8.597657-7-15.597657-15.601562-15.597657h-278.398438c2.199219 10.398438 2.199219 21 0 31.199219zm0 0"/><path d="m426.398438 281.601562h-284.796876c-2.800781 0-5-2.203124-5-5 0-.402343 0-1 .199219-1.402343 3.800781-12.398438 3.800781-25.597657 0-38-.800781-2.597657.597657-5.398438 3.398438-6.199219.402343-.199219 1-.199219 1.402343-.199219h284.796876c14 0 25.601562 11.398438 25.601562 25.398438 0 13.800781-11.601562 25.402343-25.601562 25.402343zm-278.398438-10h278.398438c8.601562 0 15.601562-7 15.601562-15.601562s-7-15.601562-15.601562-15.601562h-278.398438c2.199219 10.402343 2.199219 20.800781 0 31.203124zm0 0"/><path d="m345.199219 281.601562h-203.597657c-2.800781 0-5-2.203124-5-5 0-.402343 0-1 .199219-1.402343 3.800781-12.398438 3.800781-25.597657 0-38-.800781-2.597657.597657-5.398438 3.398438-6.199219.402343-.199219 1-.199219 1.402343-.199219h203.597657c14 0 25.601562 11.398438 25.402343 25.597657 0 13.800781-11.402343 25.203124-25.402343 25.203124zm-197.199219-10h197.199219c8.601562 0 15.601562-7 15.601562-15.601562s-7-15.601562-15.601562-15.601562h-197.199219c2.199219 10.402343 2.199219 20.800781 0 31.203124zm0 0"/><path d="m426.398438 441.800781h-286.597657c-2.800781 0-5-2.199219-5-5 0-.601562.199219-1.199219.398438-1.800781 3-7.398438 4.402343-15.398438 4.402343-23.398438 0-5-.601562-9.800781-1.601562-14.601562-.601562-2.601562 1-5.398438 3.800781-6 .398438 0 .800781-.199219 1.199219-.199219h283.601562c14 0 25.597657 11.398438 25.398438 25.597657-.199219 14-11.601562 25.402343-25.601562 25.402343zm-279.597657-10h279.597657c8.601562 0 15.601562-7 15.601562-15.402343 0-8.597657-7-15.597657-15.398438-15.597657h-277.800781c1.597657 10.398438.800781 21-2 31zm0 0"/><path d="m232.398438 126h-90.796876c-2.800781 0-5-2.199219-5-5 0-.398438 0-1 .199219-1.398438 3.800781-12.402343 3.800781-25.601562 0-38-.800781-2.800781.597657-5.601562 3.199219-6.402343.398438-.199219 1-.199219 1.398438-.199219h90.800781c14 0 25.601562 11.398438 25.601562 25.601562 0 14.199219-11.402343 25.398438-25.402343 25.398438zm-84.398438-10h84.199219c8.601562 0 15.601562-7 15.601562-15.601562 0-8.597657-7-15.597657-15.601562-15.597657h-84.199219c2.199219 10.398438 2.199219 21 0 31.199219zm0 0"/><path d="m297.601562 441.800781h-157.800781c-2.800781 0-5-2.199219-5-5 0-.601562.199219-1.199219.398438-1.800781 3-7.398438 4.402343-15.398438 4.402343-23.398438 0-5-.601562-9.800781-1.601562-14.601562-.601562-2.601562 1-5.398438 3.800781-6 .398438 0 .800781-.199219 1.199219-.199219h154.800781c14 0 25.597657 11.398438 25.398438 25.597657-.199219 14-11.597657 25.402343-25.597657 25.402343zm-150.800781-10h150.800781c8.597657 0 15.597657-7 15.398438-15.601562 0-8.597657-7-15.398438-15.398438-15.398438h-148.800781c1.597657 10.398438.800781 21-2 31zm0 0"/></g><path d="m169.398438 16.398438c-8.199219-1.597657-14.398438-8-16-16 0-.199219-.199219-.398438-.398438-.398438s-.199219.199219-.398438.398438c-1.601562 8.203124-8 14.402343-16 16-.203124 0-.402343.203124-.402343.402343s.199219.199219.402343.398438c8.199219 1.601562 14.398438 8 16 16 0 .199219.199219.402343.398438.402343s.199219-.203124.398438-.402343c1.601562-8.199219 8-14.398438 16-16 .203124 0 .402343-.199219.402343-.398438-.199219-.402343-.402343-.402343-.402343-.402343zm0 0" fill="#55acd5"/></svg>