<svg height="459pt" viewBox="-45 0 459 459.244" width="459pt" xmlns="http://www.w3.org/2000/svg"><path d="m335.5625 455.242188h-301.878906c-16.328125 0-29.5625-13.230469-29.5625-29.558594v-349.953125c0-16.324219 13.234375-29.558594 29.5625-29.558594h301.878906c16.324219 0 29.558594 13.234375 29.558594 29.558594v349.953125c0 16.328125-13.234375 29.558594-29.558594 29.558594zm0 0" fill="#4671c6"/><path d="m335.5625 459.242188h-301.878906c-18.507813 0-33.5625-15.054688-33.5625-33.558594v-349.949219c0-18.503906 15.054687-33.558594 33.5625-33.558594h301.878906c18.503906 0 33.558594 15.054688 33.558594 33.558594v349.949219c0 18.503906-15.054688 33.558594-33.558594 33.558594zm-301.878906-409.070313c-14.09375 0-25.5625 11.464844-25.5625 25.558594v349.953125c0 14.09375 11.46875 25.558594 25.5625 25.558594h301.878906c14.09375 0 25.558594-11.464844 25.558594-25.558594v-349.949219c0-14.09375-11.464844-25.558594-25.558594-25.558594h-301.878906zm0 0" fill="#3762cc"/><path d="m102.539062 423.640625h-64.980468c-5.984375 0-10.832032-4.847656-10.832032-10.828125v-64.980469c0-5.980469 4.847657-10.828125 10.832032-10.828125h64.980468c5.980469 0 10.828126 4.847656 10.828126 10.828125v64.980469c0 5.980469-4.847657 10.828125-10.828126 10.828125zm0 0" fill="#e0ebfc"/><path d="m56.203125 419.730469c-1.160156 0-2.335937-.320313-3.386719-.988281-2.941406-1.871094-3.808594-5.777344-1.9375-8.71875l14.882813-23.382813h-6.160157c-3.007812 0-5.757812-1.652344-7.167968-4.304687-1.414063-2.65625-1.25-5.859376.429687-8.355469l19.164063-28.484375c1.945312-2.894532 5.871094-3.664063 8.769531-1.714844 2.894531 1.945312 3.664063 5.871094 1.71875 8.765625l-14.4375 21.460937h5.90625c2.964844 0 5.695313 1.613282 7.121094 4.210938 1.425781 2.601562 1.324219 5.769531-.269531 8.269531l-19.289063 30.316407c-1.210937 1.894531-3.257813 2.925781-5.34375 2.925781zm0 0" fill="#eaa97d"/><path d="m331.117188 393.621094h-182.402344c-6.292969 0-11.398438-5.101563-11.398438-11.398438v-3.800781c0-6.296875 5.105469-11.398437 11.398438-11.398437h182.402344c6.292968 0 11.398437 5.101562 11.398437 11.398437v3.800781c0 6.296875-5.105469 11.398438-11.398437 11.398438zm0 0" fill="#e0ebfc"/><path d="m307.367188 367.023438h-158.652344c-6.292969 0-11.398438 5.101562-11.398438 11.398437v3.800781c0 6.296875 5.105469 11.398438 11.398438 11.398438h158.652344zm0 0" fill="#6bdddd"/><path d="m102.539062 313.84375h-64.980468c-5.984375 0-10.832032-4.851562-10.832032-10.832031v-64.980469c0-5.980469 4.847657-10.828125 10.832032-10.828125h64.980468c5.980469 0 10.828126 4.847656 10.828126 10.828125v64.980469c0 5.980469-4.847657 10.832031-10.828126 10.832031zm0 0" fill="#e0ebfc"/><path d="m96.855469 280.910156-.015625-.007812c3.046875-2.335938 5.5625-5.605469 7.117187-9.660156 4.371094-11.402344-.453125-24.5625-10.78125-29.390626-7.371093-3.449218-15.546875-1.707031-21.214843 3.714844-1.136719 1.089844-2.988282 1.140625-4.152344.074219-5.5625-5.09375-13.421875-6.753906-20.601563-3.550781-10.390625 4.628906-15.402343 17.652344-11.1875 29.082031 1.496094 4.0625 3.964844 7.359375 6.984375 9.738281l-.019531.007813 22.6875 18.675781c2.199219 1.808594 5.460937 1.835938 7.691406.054688zm0 0" fill="#f9a7a7"/><path d="m331.117188 283.820312h-182.402344c-6.292969 0-11.398438-5.101562-11.398438-11.398437v-3.800781c0-6.296875 5.105469-11.398438 11.398438-11.398438h182.402344c6.292968 0 11.398437 5.101563 11.398437 11.398438v3.800781c0 6.296875-5.105469 11.398437-11.398437 11.398437zm0 0" fill="#e0ebfc"/><path d="m148.71875 257.222656c-6.296875 0-11.402344 5.101563-11.402344 11.398438v3.800781c0 6.296875 5.105469 11.398437 11.402344 11.398437h125.082031v-26.597656zm0 0" fill="#6bdddd"/><path d="m102.539062 204.410156h-64.980468c-5.984375 0-10.832032-4.847656-10.832032-10.832031v-64.976563c0-5.984374 4.847657-10.832031 10.832032-10.832031h64.980468c5.980469 0 10.828126 4.847657 10.828126 10.832031v64.976563c0 5.984375-4.847657 10.832031-10.828126 10.832031zm0 0" fill="#e0ebfc"/><path d="m70.046875 131.632812h-24.941406c-1.378907 0-2.492188 1.140626-2.492188 2.546876v27.257812c0 10.4375 5.441407 20.089844 14.285157 25.328125l9.394531 5.566406c2.320312 1.375 5.1875 1.375 7.511719 0l9.394531-5.566406c8.84375-5.242187 14.285156-14.890625 14.285156-25.328125v-27.257812c0-1.40625-1.113281-2.546876-2.492187-2.546876zm0 0" fill="#4671c6"/><path d="m73.804688 192.332031 9.390624-5.566406c8.84375-5.242187 14.289063-14.890625 14.289063-25.328125v-27.257812c0-1.40625-1.117187-2.546876-2.496094-2.546876h-24.941406v61.730469c1.296875 0 2.59375-.34375 3.757813-1.03125zm0 0" fill="#a4c9ff"/><path d="m331.117188 174.390625h-182.402344c-6.292969 0-11.398438-5.105469-11.398438-11.402344v-3.796875c0-6.296875 5.105469-11.402344 11.398438-11.402344h182.402344c6.292968 0 11.398437 5.105469 11.398437 11.402344v3.796875c0 6.296875-5.105469 11.402344-11.398437 11.402344zm0 0" fill="#e0ebfc"/><path d="m148.71875 147.792969c-6.296875 0-11.402344 5.101562-11.402344 11.398437v3.800782c0 6.296874 5.105469 11.398437 11.402344 11.398437h163.714844v-26.597656zm0 0" fill="#6bdddd"/><path d="m258.621094 84h-148c-8.835938 0-16-7.164062-16-16v-48c0-8.835938 7.164062-16 16-16h148c8.835937 0 16 7.164062 16 16v48c0 8.835938-7.164063 16-16 16zm0 0" fill="#a4c9ff"/><path d="m124.621094 58v-28c0-4.417969 3.582031-8 8-8h104c4.417968 0 8 3.582031 8 8v28c0 4.417969-3.582032 8-8 8h-104c-4.417969 0-8-3.582031-8-8zm0 0" fill="#e0ebfc"/><path d="m337.621094 112.003906h-32c-5.519532 0-10-4.476562-10-10v-32c0-5.523437 4.480468-10 10-10h32c5.523437 0 10 4.476563 10 10v32c0 5.523438-4.476563 10-10 10zm0 0" fill="#a4c9ff"/><path d="m329.257812 86.003906 9.683594-9.683594c2.109375-2.105468 2.109375-5.527343 0-7.632812-2.113281-2.109375-5.527344-2.109375-7.636718 0l-9.683594 9.679688-9.679688-9.679688c-2.113281-2.109375-5.527344-2.109375-7.636718 0-2.109376 2.105469-2.109376 5.527344 0 7.632812l9.679687 9.683594-9.679687 9.683594c-2.109376 2.105469-2.109376 5.527344 0 7.632812 1.054687 1.054688 2.433593 1.582032 3.816406 1.582032 1.382812 0 2.765625-.527344 3.820312-1.582032l9.679688-9.679687 9.683594 9.679687c1.054687 1.054688 2.433593 1.582032 3.816406 1.582032 1.382812 0 2.765625-.527344 3.820312-1.582032 2.109375-2.105468 2.109375-5.527343 0-7.632812zm0 0" fill="#f9a7a7"/><path d="m258.621094 88h-148c-11.027344 0-20-8.972656-20-20v-48c0-11.027344 8.972656-20 20-20h148c11.027344 0 20 8.972656 20 20v48c0 11.027344-8.972656 20-20 20zm-148-80c-6.617188 0-12 5.382812-12 12v48c0 6.617188 5.382812 12 12 12h148c6.617187 0 12-5.382812 12-12v-48c0-6.617188-5.382813-12-12-12zm0 0" fill="#3762cc"/></svg>